<svg width="28" height="28" viewBox="0 0 28 28" fill="none" xmlns="http://www.w3.org/2000/svg">
<path d="M11.0833 24.9667C11.9853 24.9667 12.7166 24.2354 12.7166 23.3333C12.7166 22.4313 11.9853 21.7 11.0833 21.7C10.1812 21.7 9.44995 22.4313 9.44995 23.3333C9.44995 24.2354 10.1812 24.9667 11.0833 24.9667Z" fill="#F4F5F7"/>
<path d="M19.8333 24.9667C20.7353 24.9667 21.4666 24.2354 21.4666 23.3333C21.4666 22.4313 20.7353 21.7 19.8333 21.7C18.9312 21.7 18.2 22.4313 18.2 23.3333C18.2 24.2354 18.9312 24.9667 19.8333 24.9667Z" fill="#F4F5F7"/>
<path d="M3.5 4.66666H5.83333L8.4 17.5H20.0667L22.1667 8.16666H7" stroke="#F4F5F7" stroke-width="2.33333" stroke-linecap="round" stroke-linejoin="round"/>
</svg>
