<svg width="28" height="28" viewBox="0 0 28 28" fill="none" xmlns="http://www.w3.org/2000/svg">
<path d="M4.66663 23.3333H23.3333H4.66663Z" fill="black"/>
<path d="M4.66663 23.3333H23.3333" stroke="#F4F5F7" stroke-width="2.33333" stroke-linecap="round"/>
<path d="M8.40004 14H7.00004C6.35571 14 5.83337 14.5223 5.83337 15.1667V19.8333C5.83337 20.4777 6.35571 21 7.00004 21H8.40004C9.04437 21 9.56671 20.4777 9.56671 19.8333V15.1667C9.56671 14.5223 9.04437 14 8.40004 14Z" fill="#F4F5F7"/>
<path d="M14.7 8.16667H13.3C12.6556 8.16667 12.1333 8.689 12.1333 9.33333V19.8333C12.1333 20.4777 12.6556 21 13.3 21H14.7C15.3443 21 15.8666 20.4777 15.8666 19.8333V9.33333C15.8666 8.689 15.3443 8.16667 14.7 8.16667Z" fill="#F4F5F7"/>
<path d="M21 11.6667H19.6C18.9557 11.6667 18.4333 12.189 18.4333 12.8333V19.8333C18.4333 20.4777 18.9557 21 19.6 21H21C21.6443 21 22.1667 20.4777 22.1667 19.8333V12.8333C22.1667 12.189 21.6443 11.6667 21 11.6667Z" fill="#F4F5F7"/>
</svg>
