<svg width="28" height="28" viewBox="0 0 28 28" fill="none" xmlns="http://www.w3.org/2000/svg">
<path d="M14 23.9167C19.4769 23.9167 23.9167 19.4768 23.9167 14C23.9167 8.52318 19.4769 4.08334 14 4.08334C8.52322 4.08334 4.08337 8.52318 4.08337 14C4.08337 19.4768 8.52322 23.9167 14 23.9167Z" stroke="#F4F5F7" stroke-width="2.33333"/>
<path d="M14 12.8333V18.6667V12.8333Z" fill="black"/>
<path d="M14 12.8333V18.6667" stroke="#F4F5F7" stroke-width="2.33333" stroke-linecap="round"/>
<path d="M14 10.3833C14.7088 10.3833 15.2833 9.80876 15.2833 9.1C15.2833 8.39123 14.7088 7.81667 14 7.81667C13.2912 7.81667 12.7167 8.39123 12.7167 9.1C12.7167 9.80876 13.2912 10.3833 14 10.3833Z" fill="#F4F5F7"/>
</svg>
