<svg width="28" height="28" viewBox="0 0 28 28" fill="none" xmlns="http://www.w3.org/2000/svg">
<path d="M19.6 12.25H8.40004C6.98251 12.25 5.83337 13.3991 5.83337 14.8167V20.7667C5.83337 22.1842 6.98251 23.3333 8.40004 23.3333H19.6C21.0176 23.3333 22.1667 22.1842 22.1667 20.7667V14.8167C22.1667 13.3991 21.0176 12.25 19.6 12.25Z" stroke="#F4F5F7" stroke-width="2.33333"/>
<path d="M8.75 12.25V8.75C8.75 7.35761 9.30312 6.02226 10.2877 5.03769C11.2723 4.05312 12.6076 3.5 14 3.5C15.3924 3.5 16.7277 4.05312 17.7123 5.03769C18.6969 6.02226 19.25 7.35761 19.25 8.75V12.25" stroke="#F4F5F7" stroke-width="2.33333" stroke-linecap="round"/>
<path d="M13.9999 19.0167C14.8376 19.0167 15.5166 18.3376 15.5166 17.5C15.5166 16.6624 14.8376 15.9833 13.9999 15.9833C13.1623 15.9833 12.4833 16.6624 12.4833 17.5C12.4833 18.3376 13.1623 19.0167 13.9999 19.0167Z" fill="#F4F5F7"/>
</svg>
