<svg width="28" height="28" viewBox="0 0 28 28" fill="none" xmlns="http://www.w3.org/2000/svg">
<path d="M23.3333 16.9167C21.6196 17.649 19.7259 17.8514 17.896 17.498C16.0662 17.1446 14.3841 16.2515 13.0663 14.9337C11.7485 13.6159 10.8554 11.9338 10.502 10.104C10.1486 8.27413 10.351 6.38041 11.0833 4.66666C9.67997 5.26632 8.44507 6.20094 7.4868 7.38866C6.52853 8.57638 5.87611 9.98097 5.58671 11.4794C5.29731 12.9778 5.37976 14.5243 5.82682 15.9834C6.27388 17.4426 7.07192 18.7698 8.15103 19.849C9.23014 20.9281 10.5574 21.7261 12.0166 22.1732C13.4757 22.6202 15.0222 22.7027 16.5206 22.4133C18.019 22.1239 19.4236 21.4715 20.6113 20.5132C21.799 19.5549 22.7337 18.32 23.3333 16.9167Z" stroke="#F4F5F7" stroke-width="2.33333" stroke-linejoin="round"/>
</svg>
