<svg width="28" height="28" viewBox="0 0 28 28" fill="none" xmlns="http://www.w3.org/2000/svg">
<path d="M4.66663 9.33333H23.3333H4.66663ZM4.66663 18.6667H23.3333H4.66663Z" fill="black"/>
<path d="M4.66663 9.33333H23.3333M4.66663 18.6667H23.3333" stroke="#F4F5F7" stroke-width="2.33333" stroke-linecap="round"/>
<path d="M10.5 12.3667C12.1753 12.3667 13.5333 11.0086 13.5333 9.33333C13.5333 7.65807 12.1753 6.3 10.5 6.3C8.82474 6.3 7.46667 7.65807 7.46667 9.33333C7.46667 11.0086 8.82474 12.3667 10.5 12.3667Z" fill="#1A1C22" stroke="#F4F5F7" stroke-width="2.33333"/>
<path d="M17.5 21.7C19.1753 21.7 20.5333 20.3419 20.5333 18.6667C20.5333 16.9914 19.1753 15.6333 17.5 15.6333C15.8247 15.6333 14.4667 16.9914 14.4667 18.6667C14.4667 20.3419 15.8247 21.7 17.5 21.7Z" fill="#1A1C22" stroke="#F4F5F7" stroke-width="2.33333"/>
</svg>
