<svg width="28" height="28" viewBox="0 0 28 28" fill="none" xmlns="http://www.w3.org/2000/svg">
<path d="M14 23.3333C19.1546 23.3333 23.3333 19.1547 23.3333 14C23.3333 8.84534 19.1546 4.66667 14 4.66667C8.8453 4.66667 4.66663 8.84534 4.66663 14C4.66663 19.1547 8.8453 23.3333 14 23.3333Z" stroke="#F4F5F7" stroke-width="2.33333"/>
<path d="M14 18.2C16.3196 18.2 18.2 16.3196 18.2 14C18.2 11.6804 16.3196 9.8 14 9.8C11.6805 9.8 9.80005 11.6804 9.80005 14C9.80005 16.3196 11.6805 18.2 14 18.2Z" stroke="#F4F5F7" stroke-width="2.33333"/>
<path d="M14 15.1667C14.6444 15.1667 15.1667 14.6443 15.1667 14C15.1667 13.3557 14.6444 12.8333 14 12.8333C13.3557 12.8333 12.8334 13.3557 12.8334 14C12.8334 14.6443 13.3557 15.1667 14 15.1667Z" fill="#F4F5F7"/>
</svg>
